PathFileType	4	(X/Y/Z)	/Users/itak/Documents/Research/Walk-IL/dataset/trc/00382_00012.trc
DataRate	CameraRate	NumFrames	NumMarkers	Units	OrigDataRate	OrigDataStartFrame	OrigNumFrames
100.000000	100.000000	4	54	mm	100.000000	420	560
Frame#	Time	RPSI			LPSI			L3			STRN			T10			C7			CLAV			RBAK			LBAK			LSHO			LUPA			LAEL			LAOL			LWTS			LWPS			LFRA			LIFD			LHPS			LHTS			RSHO			RUPA			RAEL			RAOL			RWTS			RWPS			RFRA			RIFD			RHPS			RBHD			LFHD			RFHD			LBHD			LHIP			RHIP			RASI			LASI			LKNE			LTHI			LANK			LTIP			LTOE			LMT1			LMT5			LHEE			RKNE			RTHI			RANK			RTIP			RTOE			RMT1			RMT5			RHEE			RHTS			*53			
		X1	Y1	Z1	X2	Y2	Z2	X3	Y3	Z3	X4	Y4	Z4	X5	Y5	Z5	X6	Y6	Z6	X7	Y7	Z7	X8	Y8	Z8	X9	Y9	Z9	X10	Y10	Z10	X11	Y11	Z11	X12	Y12	Z12	X13	Y13	Z13	X14	Y14	Z14	X15	Y15	Z15	X16	Y16	Z16	X17	Y17	Z17	X18	Y18	Z18	X19	Y19	Z19	X20	Y20	Z20	X21	Y21	Z21	X22	Y22	Z22	X23	Y23	Z23	X24	Y24	Z24	X25	Y25	Z25	X26	Y26	Z26	X27	Y27	Z27	X28	Y28	Z28	X29	Y29	Z29	X30	Y30	Z30	X31	Y31	Z31	X32	Y32	Z32	X33	Y33	Z33	X34	Y34	Z34	X35	Y35	Z35	X36	Y36	Z36	X37	Y37	Z37	X38	Y38	Z38	X39	Y39	Z39	X40	Y40	Z40	X41	Y41	Z41	X42	Y42	Z42	X43	Y43	Z43	X44	Y44	Z44	X45	Y45	Z45	X46	Y46	Z46	X47	Y47	Z47	X48	Y48	Z48	X49	Y49	Z49	X50	Y50	Z50	X51	Y51	Z51	X52	Y52	Z52	X53	Y53	Z53	X54	Y54	Z54	

421	4.2	522.7854614257812	941.2173461914062	146.5102844238281	511.5914001464844	947.5287475585938	16.13105583190918	512.4556274414062	1026.211669921875	85.13719177246094	740.1334228515625	1195.956787109375	91.14396667480469	495.3639526367188	1126.792236328125	75.10109710693359	520.0650024414062	1378.0439453125	71.73139953613281	677.1469116210938	1310.42041015625	90.94102478027344	479.5565795898438	1228.261352539062	123.0260620117188	512.5130615234375	1345.943115234375	-32.03010559082031	601.8326416015625	1371.140502929688	-73.87261199951172	590.9663696289062	1257.233032226562	-152.0051422119141	643.6331176757812	1074.814697265625	-187.6585083007812	590.4190063476562	1030.408325195312	-135.7989959716797	843.073974609375	1000.101440429688	-153.1644439697266	821.5538330078125	961.3687744140625	-222.7602691650391	710.1546020507812	1016.985412597656	-203.1290435791016	983.1190795898438	893.02490234375	-171.8946380615234	898.87744140625	920.9600830078125	-222.0445709228516	931.4421997070312	960.2801513671875	-182.1177825927734	557.666748046875	1352.7197265625	232.7062377929688	526.9995727539062	1290.638061523438	278.1426086425781	467.3955383300781	1037.089477539062	284.4948425292969	492.0836791992188	1031.360717773438	190.8073883056641	542.4671020507812	797.992919921875	296.7946472167969	475.5328979492188	799.8863525390625	329.0408020019531	467.8822326660156	968.219482421875	305.2323913574219	498.05908203125	632.1963500976562	279.22998046875	457.4460754394531	712.1535034179688	322.73046875	554.1565551757812	1565.220336914062	170.6353302001953	695.4810180664062	1576.987060546875	30.22720527648926	686.4630126953125	1581.152099609375	152.8815002441406	548.4530029296875	1557.5859375	9.420890808105469	588.3148193359375	950.5140991210938	-104.0050735473633	616.0502319335938	921.5597534179688	252.3203430175781	741.4149169921875	948.30078125	189.6240692138672	707.3757934570312	949.5650634765625	-71.71376037597656	621.26904296875	453.6616821289062	-64.37810516357422	622.5066528320312	598.8839111328125	-87.13443756103516	445.802978515625	43.41255187988281	-13.00569820404053	536.2315673828125	229.9009094238281	-46.55059432983398	660.2556762695312	34.26621246337891	59.09834289550781	574.817626953125	35.63047790527344	87.00006866455078	572.1271362304688	38.63523101806641	-18.17082595825195	404.1608581542969	42.04423141479492	39.47805786132812	838.5807495117188	485.0170288085938	233.2063598632812	751.4351806640625	731.2833251953125	249.5092010498047	927.9478149414062	56.57115173339844	218.8215789794922	885.8084716796875	367.4537658691406	230.0712890625	1096.628173828125	99.74160003662109	171.2790069580078	1031.724365234375	81.64005279541016	135.35205078125	1012.062316894531	61.0245246887207	232.8634796142578	864.5260009765625	31.2263126373291	158.2826538085938	523.3512573242188	692.2020874023438	313.1144409179688	nan	nan	nan	
422	4.21	532.576904296875	938.8106689453125	147.9603271484375	520.4301147460938	945.3213500976562	17.728759765625	521.5115966796875	1024.078002929688	86.66352081298828	749.3109130859375	1193.829467773438	91.27069091796875	504.801025390625	1124.767944335938	76.74971771240234	529.2664184570312	1376.02001953125	72.36079406738281	686.32568359375	1308.257080078125	91.20138549804688	489.0444641113281	1225.991333007812	123.9986953735352	521.4048461914062	1343.774047851562	-31.34924697875977	610.688720703125	1368.950805664062	-73.47047424316406	599.990478515625	1254.820556640625	-151.3379669189453	653.30078125	1072.544311523438	-186.4314727783203	600.2601928710938	1027.884033203125	-134.7993316650391	853.235595703125	1000.834594726562	-151.1997985839844	832.4990844726562	961.8121337890625	-220.9206695556641	720.28173828125	1015.795959472656	-201.7024536132812	995.4356079101562	896.243408203125	-169.7586364746094	910.5317993164062	922.5853881835938	-219.8796844482422	942.292724609375	962.4237060546875	-179.8123321533203	567.261474609375	1350.6748046875	233.3222045898438	536.6109008789062	1288.595458984375	278.74462890625	476.3959655761719	1035.239990234375	284.6813659667969	501.1943969726562	1029.470581054688	191.0090637207031	549.7296142578125	795.5662231445312	296.4159851074219	482.8201904296875	797.99755859375	328.7154541015625	476.4140930175781	966.3543701171875	305.2521362304688	503.5707397460938	630.2076416015625	278.4163208007812	463.822998046875	710.475830078125	322.1828918457031	563.45703125	1562.959838867188	171.4397583007812	704.7289428710938	1575.092163085938	31.00343132019043	695.7503662109375	1578.993530273438	153.6716918945312	557.689697265625	1555.611694335938	10.20731544494629	596.339111328125	948.681884765625	-102.9403305053711	626.6430053710938	919.0639038085938	253.0597229003906	751.5264282226562	946.2084350585938	189.5137023925781	715.4979858398438	947.6978759765625	-71.76451873779297	627.1204223632812	452.0735778808594	-63.97555923461914	629.1771240234375	597.3319091796875	-86.79283142089844	445.8817749023438	43.63232040405273	-12.93814086914062	538.8583984375	229.4359741210938	-46.42409896850586	660.3175048828125	34.21311569213867	58.90787124633789	574.8760986328125	35.5297966003418	87.032958984375	572.1484375	38.38147735595703	-18.3165397644043	404.2770690917969	42.71839904785156	39.57041168212891	848.0149536132812	482.6327209472656	234.0138702392578	761.3352661132812	729.2870483398438	249.4086761474609	953.89404296875	56.79735946655273	219.8769378662109	899.1707763671875	366.8746948242188	230.7616577148438	1120.989013671875	106.4576950073242	170.1540985107422	1056.042236328125	86.47125244140625	135.0049591064453	1038.329223632812	64.62550354003906	232.7793273925781	890.8214721679688	29.87564659118652	159.9041290283203	529.5216064453125	689.8929443359375	312.4318237304688	nan	nan	nan	
423	4.22	542.442626953125	936.4628295898438	149.4673767089844	529.3397216796875	943.0800170898438	19.36351013183594	530.6099853515625	1021.920043945312	88.19960784912109	758.5267944335938	1191.719848632812	91.41716003417969	514.2254028320312	1122.767333984375	78.42833709716797	538.482666015625	1374.008178710938	73.04213714599609	695.5419311523438	1306.108032226562	91.49832153320312	498.5227966308594	1223.715942382812	125.0331802368164	530.3088989257812	1341.60546875	-30.62027359008789	619.54248046875	1366.752563476562	-73.03064727783203	609.0016479492188	1252.397705078125	-150.6119842529297	662.8812866210938	1070.223266601562	-185.1664886474609	609.9795532226562	1025.367797851562	-133.7139587402344	863.191162109375	1001.065734863281	-149.2489471435547	843.1242065429688	961.7959594726562	-219.0686187744141	730.2482299804688	1014.387573242188	-200.2384796142578	1007.059631347656	898.41162109375	-167.4700775146484	921.7357788085938	923.5621948242188	-217.7108306884766	952.8185424804688	963.8316040039062	-177.5362701416016	576.8728637695312	1348.634765625	233.9859466552734	546.3203125	1286.530639648438	279.4291381835938	485.6539916992188	1033.30126953125	285.0218200683594	510.4378662109375	1027.536010742188	191.4081878662109	557.40673828125	793.136962890625	296.1235961914062	490.5555419921875	796.054443359375	328.5250244140625	485.2089233398438	964.4285278320312	305.406494140625	509.5730895996094	628.2093505859375	277.6544189453125	470.6753540039062	708.7344970703125	321.7396240234375	572.7238159179688	1560.726806640625	172.2480010986328	713.9354858398438	1573.239379882812	31.75259971618652	705.0056762695312	1576.882202148438	154.4512786865234	566.8792724609375	1553.631713867188	11.00795555114746	604.4046630859375	946.75830078125	-101.8660888671875	637.314208984375	916.714111328125	253.8547821044922	761.7098388671875	944.1751708984375	189.4070739746094	723.6943359375	945.7745971679688	-71.80890655517578	633.3208618164062	450.4319458007812	-63.43971252441406	636.072998046875	595.69873046875	-86.30106353759766	446.0005798339844	43.99424362182617	-12.86046695709229	541.6668090820312	229.0335235595703	-46.22655868530273	660.3778076171875	34.1456298828125	58.74306488037109	574.983154296875	35.47269439697266	87.05826568603516	572.191162109375	38.13431167602539	-18.46640205383301	404.4078979492188	43.63491058349609	39.66648864746094	857.615234375	480.3744812011719	234.7782135009766	771.6476440429688	727.5161743164062	249.2836608886719	977.38037109375	57.38491058349609	220.5907440185547	911.9978637695312	366.2690124511719	231.2811431884766	1142.945556640625	112.7552947998047	168.9663543701172	1077.984497070312	91.04095458984375	134.4821166992188	1061.966796875	68.20907592773438	232.4510192871094	914.6215209960938	29.00110816955566	161.0474853515625	536.18994140625	687.5680541992188	311.815185546875	nan	nan	nan	
424	4.23	552.3715209960938	934.2385864257812	151.0198211669922	538.3447875976562	940.8527221679688	21.03168487548828	539.7847290039062	1019.787719726562	89.73830413818359	767.7880249023438	1189.663208007812	91.58626556396484	523.6293334960938	1120.816162109375	80.10530853271484	547.7210693359375	1372.03515625	73.77224731445312	704.8016357421875	1304.008422851562	91.83412933349609	508.004638671875	1221.47802734375	126.1240615844727	539.2387084960938	1339.474365234375	-29.84773254394531	628.40283203125	1364.58203125	-72.55538177490234	617.9986572265625	1250.001831054688	-149.8331298828125	672.3726806640625	1067.891845703125	-183.8756713867188	619.5626220703125	1022.898559570312	-132.5472106933594	872.948486328125	1000.812622070312	-147.3297729492188	853.431884765625	961.3356323242188	-217.2160034179688	740.0452270507812	1012.788391113281	-198.7382965087891	1018.039916992188	899.5587158203125	-165.082763671875	932.4955444335938	923.88671875	-215.5531158447266	963.0328369140625	964.4910278320312	-175.2926025390625	586.5075073242188	1346.630493164062	234.6932373046875	556.1151733398438	1284.475952148438	280.1865234375	495.16552734375	1031.324096679688	285.5195617675781	519.81884765625	1025.59375	191.9993286132812	565.5170288085938	790.7390747070312	295.9157409667969	498.7598571777344	794.0858764648438	328.479736328125	494.296142578125	962.476318359375	305.7118530273438	516.1045532226562	626.22998046875	276.9536743164062	478.0381469726562	706.9515991210938	321.4162902832031	581.96337890625	1558.5517578125	173.0625152587891	723.100341796875	1571.455810546875	32.4760856628418	714.2330322265625	1574.84716796875	155.2207946777344	576.0241088867188	1551.680297851562	11.82357597351074	612.5335083007812	944.7802124023438	-100.7877731323242	648.0697021484375	914.5742797851562	254.7060852050781	771.968505859375	942.2547607421875	189.3065338134766	731.9937133789062	943.8235473632812	-71.82023620605469	639.8770751953125	448.7547912597656	-62.77103805541992	643.181884765625	594.0051879882812	-85.63038635253906	446.1752624511719	44.55545806884766	-12.7663688659668	544.6834106445312	228.7243041992188	-45.94039535522461	660.4397583007812	34.07097625732422	58.60015869140625	575.1573486328125	35.50300216674805	87.06572723388672	572.2652587890625	37.91245269775391	-18.60890197753906	404.5541381835938	44.8613395690918	39.77865982055664	867.4390869140625	478.2948608398438	235.4449157714844	782.3582153320312	725.9832153320312	249.1237487792969	998.3639526367188	58.16703414916992	220.9848327636719	924.353271484375	365.6177978515625	231.5870208740234	1162.4765625	118.2498626708984	167.6450347900391	1097.500122070312	95.01887512207031	133.7434692382812	1082.96533203125	71.49787139892578	231.8201751708984	935.7996826171875	28.4218692779541	161.7705230712891	543.3840942382812	685.25439453125	311.2621154785156	nan	nan	nan	
